<mxfile host="app.diagrams.net" agent="Mozilla/5.0 (Windows NT 10.0; Win64; x64) AppleWebKit/537.36 (KHTML, like Gecko) Chrome/135.0.0.0 Safari/537.36" version="26.2.14">
  <diagram id="_5xTVQx_9xRQvG6UJUDG" name="Usecase_3">
    <mxGraphModel dx="1869" dy="1765" grid="1" gridSize="10" guides="1" tooltips="1" connect="1" arrows="1" fold="1" page="1" pageScale="1" pageWidth="827" pageHeight="1169" math="0" shadow="0">
      <root>
        <mxCell id="0" />
        <mxCell id="1" parent="0" />
        <mxCell id="an3T1tWaq7A_vHOQ9SGc-7" value="Фармацевт&lt;div&gt;&lt;br&gt;&lt;/div&gt;" style="shape=umlActor;verticalLabelPosition=bottom;verticalAlign=top;html=1;outlineConnect=0;" parent="1" vertex="1">
          <mxGeometry x="-382" y="-1065" width="30" height="60" as="geometry" />
        </mxCell>
        <mxCell id="an3T1tWaq7A_vHOQ9SGc-8" value="" style="endArrow=classic;html=1;rounded=0;entryX=0.5;entryY=0;entryDx=0;entryDy=0;" parent="1" source="an3T1tWaq7A_vHOQ9SGc-7" target="an3T1tWaq7A_vHOQ9SGc-9" edge="1">
          <mxGeometry width="50" height="50" relative="1" as="geometry">
            <mxPoint x="-382" y="-895" as="sourcePoint" />
            <mxPoint x="-362" y="-915" as="targetPoint" />
          </mxGeometry>
        </mxCell>
        <mxCell id="an3T1tWaq7A_vHOQ9SGc-11" style="edgeStyle=orthogonalEdgeStyle;rounded=0;orthogonalLoop=1;jettySize=auto;html=1;exitX=0;exitY=1;exitDx=0;exitDy=0;" parent="1" source="an3T1tWaq7A_vHOQ9SGc-9" edge="1">
          <mxGeometry relative="1" as="geometry">
            <mxPoint x="-520" y="-830" as="targetPoint" />
          </mxGeometry>
        </mxCell>
        <mxCell id="an3T1tWaq7A_vHOQ9SGc-13" style="edgeStyle=orthogonalEdgeStyle;rounded=0;orthogonalLoop=1;jettySize=auto;html=1;exitX=1.003;exitY=0.682;exitDx=0;exitDy=0;exitPerimeter=0;" parent="1" source="an3T1tWaq7A_vHOQ9SGc-9" target="an3T1tWaq7A_vHOQ9SGc-17" edge="1">
          <mxGeometry relative="1" as="geometry">
            <mxPoint x="-220" y="-810" as="targetPoint" />
          </mxGeometry>
        </mxCell>
        <mxCell id="an3T1tWaq7A_vHOQ9SGc-14" style="edgeStyle=orthogonalEdgeStyle;rounded=0;orthogonalLoop=1;jettySize=auto;html=1;exitX=0.5;exitY=1;exitDx=0;exitDy=0;" parent="1" source="an3T1tWaq7A_vHOQ9SGc-9" edge="1">
          <mxGeometry relative="1" as="geometry">
            <mxPoint x="-367.46153846153857" y="-755" as="targetPoint" />
            <mxPoint x="-367" y="-840" as="sourcePoint" />
          </mxGeometry>
        </mxCell>
        <mxCell id="an3T1tWaq7A_vHOQ9SGc-9" value="Реєстрація клієнта" style="ellipse;whiteSpace=wrap;html=1;" parent="1" vertex="1">
          <mxGeometry x="-427" y="-925" width="120" height="70" as="geometry" />
        </mxCell>
        <mxCell id="an3T1tWaq7A_vHOQ9SGc-25" style="edgeStyle=orthogonalEdgeStyle;rounded=0;orthogonalLoop=1;jettySize=auto;html=1;exitX=0;exitY=1;exitDx=0;exitDy=0;entryX=0.5;entryY=0;entryDx=0;entryDy=0;" parent="1" source="an3T1tWaq7A_vHOQ9SGc-15" target="an3T1tWaq7A_vHOQ9SGc-26" edge="1">
          <mxGeometry relative="1" as="geometry">
            <mxPoint x="-630" y="-660" as="targetPoint" />
          </mxGeometry>
        </mxCell>
        <mxCell id="an3T1tWaq7A_vHOQ9SGc-15" value="Введення даних" style="ellipse;whiteSpace=wrap;html=1;" parent="1" vertex="1">
          <mxGeometry x="-600" y="-830" width="120" height="80" as="geometry" />
        </mxCell>
        <mxCell id="an3T1tWaq7A_vHOQ9SGc-16" value="Валідація даних" style="ellipse;whiteSpace=wrap;html=1;" parent="1" vertex="1">
          <mxGeometry x="-427" y="-770" width="120" height="80" as="geometry" />
        </mxCell>
        <mxCell id="an3T1tWaq7A_vHOQ9SGc-17" value="Підтвердження профілю" style="ellipse;whiteSpace=wrap;html=1;" parent="1" vertex="1">
          <mxGeometry x="-270" y="-830" width="120" height="80" as="geometry" />
        </mxCell>
        <mxCell id="an3T1tWaq7A_vHOQ9SGc-19" value="" style="endArrow=classic;html=1;rounded=0;exitX=1;exitY=0.5;exitDx=0;exitDy=0;entryX=0.348;entryY=0.065;entryDx=0;entryDy=0;entryPerimeter=0;" parent="1" source="an3T1tWaq7A_vHOQ9SGc-17" target="an3T1tWaq7A_vHOQ9SGc-21" edge="1">
          <mxGeometry width="50" height="50" relative="1" as="geometry">
            <mxPoint x="-130" y="-790" as="sourcePoint" />
            <mxPoint x="-90" y="-720" as="targetPoint" />
          </mxGeometry>
        </mxCell>
        <mxCell id="an3T1tWaq7A_vHOQ9SGc-20" value="extend" style="text;html=1;align=center;verticalAlign=middle;resizable=0;points=[];autosize=1;strokeColor=none;fillColor=none;" parent="1" vertex="1">
          <mxGeometry x="-150" y="-792" width="60" height="30" as="geometry" />
        </mxCell>
        <mxCell id="an3T1tWaq7A_vHOQ9SGc-21" value="Повторне надсилання підтвердження" style="ellipse;whiteSpace=wrap;html=1;" parent="1" vertex="1">
          <mxGeometry x="-140" y="-740" width="120" height="80" as="geometry" />
        </mxCell>
        <mxCell id="an3T1tWaq7A_vHOQ9SGc-22" value="" style="endArrow=classic;html=1;rounded=0;exitX=1;exitY=1;exitDx=0;exitDy=0;entryX=0;entryY=0;entryDx=0;entryDy=0;" parent="1" source="an3T1tWaq7A_vHOQ9SGc-16" target="an3T1tWaq7A_vHOQ9SGc-24" edge="1">
          <mxGeometry width="50" height="50" relative="1" as="geometry">
            <mxPoint x="-290" y="-610" as="sourcePoint" />
            <mxPoint x="-250" y="-650" as="targetPoint" />
          </mxGeometry>
        </mxCell>
        <mxCell id="an3T1tWaq7A_vHOQ9SGc-23" value="extend" style="text;html=1;align=center;verticalAlign=middle;resizable=0;points=[];autosize=1;strokeColor=none;fillColor=none;" parent="1" vertex="1">
          <mxGeometry x="-340" y="-680" width="60" height="30" as="geometry" />
        </mxCell>
        <mxCell id="an3T1tWaq7A_vHOQ9SGc-24" value="Некоректні дані&lt;div&gt;повідомлення про помилку&lt;/div&gt;" style="ellipse;whiteSpace=wrap;html=1;" parent="1" vertex="1">
          <mxGeometry x="-390" y="-624" width="100" height="80" as="geometry" />
        </mxCell>
        <mxCell id="an3T1tWaq7A_vHOQ9SGc-26" value="Створення профілю" style="ellipse;whiteSpace=wrap;html=1;" parent="1" vertex="1">
          <mxGeometry x="-690" y="-650" width="120" height="80" as="geometry" />
        </mxCell>
        <mxCell id="an3T1tWaq7A_vHOQ9SGc-27" value="include" style="text;html=1;align=center;verticalAlign=middle;resizable=0;points=[];autosize=1;strokeColor=none;fillColor=none;" parent="1" vertex="1">
          <mxGeometry x="-640" y="-730" width="60" height="30" as="geometry" />
        </mxCell>
        <mxCell id="an3T1tWaq7A_vHOQ9SGc-28" value="" style="endArrow=classic;html=1;rounded=0;exitX=0.5;exitY=1;exitDx=0;exitDy=0;entryX=0.5;entryY=0;entryDx=0;entryDy=0;" parent="1" source="an3T1tWaq7A_vHOQ9SGc-26" target="an3T1tWaq7A_vHOQ9SGc-29" edge="1">
          <mxGeometry width="50" height="50" relative="1" as="geometry">
            <mxPoint x="-550" y="-560" as="sourcePoint" />
            <mxPoint x="-610" y="-530" as="targetPoint" />
          </mxGeometry>
        </mxCell>
        <mxCell id="an3T1tWaq7A_vHOQ9SGc-29" value="Редагування даних" style="ellipse;whiteSpace=wrap;html=1;" parent="1" vertex="1">
          <mxGeometry x="-690" y="-530" width="120" height="80" as="geometry" />
        </mxCell>
        <mxCell id="an3T1tWaq7A_vHOQ9SGc-30" value="" style="endArrow=classic;html=1;rounded=0;exitX=0;exitY=1;exitDx=0;exitDy=0;entryX=0.781;entryY=0.087;entryDx=0;entryDy=0;entryPerimeter=0;" parent="1" source="an3T1tWaq7A_vHOQ9SGc-29" target="an3T1tWaq7A_vHOQ9SGc-31" edge="1">
          <mxGeometry width="50" height="50" relative="1" as="geometry">
            <mxPoint x="-700" y="-370" as="sourcePoint" />
            <mxPoint x="-700" y="-420" as="targetPoint" />
          </mxGeometry>
        </mxCell>
        <mxCell id="an3T1tWaq7A_vHOQ9SGc-31" value="Додавання додаткових&amp;nbsp;даних" style="ellipse;whiteSpace=wrap;html=1;" parent="1" vertex="1">
          <mxGeometry x="-820" y="-430" width="120" height="80" as="geometry" />
        </mxCell>
        <mxCell id="an3T1tWaq7A_vHOQ9SGc-32" value="extend" style="text;html=1;align=center;verticalAlign=middle;resizable=0;points=[];autosize=1;strokeColor=none;fillColor=none;" parent="1" vertex="1">
          <mxGeometry x="-740" y="-472" width="60" height="30" as="geometry" />
        </mxCell>
        <mxCell id="an3T1tWaq7A_vHOQ9SGc-34" value="" style="endArrow=classic;html=1;rounded=0;exitX=1;exitY=1;exitDx=0;exitDy=0;entryX=0.5;entryY=0;entryDx=0;entryDy=0;" parent="1" source="an3T1tWaq7A_vHOQ9SGc-29" target="an3T1tWaq7A_vHOQ9SGc-36" edge="1">
          <mxGeometry width="50" height="50" relative="1" as="geometry">
            <mxPoint x="-570" y="-410" as="sourcePoint" />
            <mxPoint x="-560" y="-420" as="targetPoint" />
          </mxGeometry>
        </mxCell>
        <mxCell id="an3T1tWaq7A_vHOQ9SGc-35" value="extend" style="text;html=1;align=center;verticalAlign=middle;resizable=0;points=[];autosize=1;strokeColor=none;fillColor=none;" parent="1" vertex="1">
          <mxGeometry x="-580" y="-460" width="60" height="30" as="geometry" />
        </mxCell>
        <mxCell id="an3T1tWaq7A_vHOQ9SGc-36" value="Пропустити(базовий профіль)" style="ellipse;whiteSpace=wrap;html=1;" parent="1" vertex="1">
          <mxGeometry x="-610" y="-410" width="120" height="80" as="geometry" />
        </mxCell>
        <mxCell id="an3T1tWaq7A_vHOQ9SGc-38" value="" style="endArrow=classic;html=1;rounded=0;exitX=1.003;exitY=0.371;exitDx=0;exitDy=0;exitPerimeter=0;" parent="1" source="an3T1tWaq7A_vHOQ9SGc-29" edge="1">
          <mxGeometry width="50" height="50" relative="1" as="geometry">
            <mxPoint x="-550" y="-530" as="sourcePoint" />
            <mxPoint x="-420" y="-470" as="targetPoint" />
          </mxGeometry>
        </mxCell>
        <mxCell id="an3T1tWaq7A_vHOQ9SGc-39" value="Перевірка на дублювання даних" style="ellipse;whiteSpace=wrap;html=1;" parent="1" vertex="1">
          <mxGeometry x="-427" y="-497" width="120" height="80" as="geometry" />
        </mxCell>
        <mxCell id="an3T1tWaq7A_vHOQ9SGc-42" value="" style="endArrow=classic;html=1;rounded=0;exitX=1;exitY=0;exitDx=0;exitDy=0;entryX=0;entryY=0.5;entryDx=0;entryDy=0;" parent="1" source="an3T1tWaq7A_vHOQ9SGc-9" target="an3T1tWaq7A_vHOQ9SGc-43" edge="1">
          <mxGeometry width="50" height="50" relative="1" as="geometry">
            <mxPoint x="-320" y="-890" as="sourcePoint" />
            <mxPoint x="-240" y="-960" as="targetPoint" />
          </mxGeometry>
        </mxCell>
        <mxCell id="an3T1tWaq7A_vHOQ9SGc-43" value="Завершення реєстрації" style="ellipse;whiteSpace=wrap;html=1;" parent="1" vertex="1">
          <mxGeometry x="-240" y="-990" width="120" height="80" as="geometry" />
        </mxCell>
        <mxCell id="an3T1tWaq7A_vHOQ9SGc-46" style="edgeStyle=orthogonalEdgeStyle;rounded=0;orthogonalLoop=1;jettySize=auto;html=1;exitX=0;exitY=1;exitDx=0;exitDy=0;exitPerimeter=0;entryX=1;entryY=0;entryDx=0;entryDy=0;" parent="1" source="an3T1tWaq7A_vHOQ9SGc-44" target="an3T1tWaq7A_vHOQ9SGc-17" edge="1">
          <mxGeometry relative="1" as="geometry" />
        </mxCell>
        <mxCell id="an3T1tWaq7A_vHOQ9SGc-44" value="Клієнт&lt;div&gt;&lt;br&gt;&lt;/div&gt;" style="shape=umlActor;verticalLabelPosition=bottom;verticalAlign=top;html=1;outlineConnect=0;" parent="1" vertex="1">
          <mxGeometry x="-80" y="-915" width="30" height="60" as="geometry" />
        </mxCell>
      </root>
    </mxGraphModel>
  </diagram>
</mxfile>
